<?xml version="1.0" standalone="no"?>
<!DOCTYPE svg PUBLIC "-//W3C//DTD SVG 20010904//EN"
 "http://www.w3.org/TR/2001/REC-SVG-20010904/DTD/svg10.dtd">
<svg version="1.0" xmlns="http://www.w3.org/2000/svg"
 width="1280.000000pt" height="1280.000000pt" viewBox="0 0 1280.000000 1280.000000"
 preserveAspectRatio="xMidYMid meet">

<g transform="translate(0.000000,1280.000000) scale(0.100000,-0.100000)"
fill="#000000" stroke="none">
<path d="M0 12750 c0 -48 12 -66 23 -36 4 9 14 12 26 9 12 -3 18 -9 15 -14 -3
-5 0 -9 5 -9 6 0 11 5 11 10 0 6 4 10 10 10 20 0 -3 -29 -33 -41 -23 -10 -32
-10 -35 -1 -7 21 -22 13 -22 -12 l0 -23 268 -6 c358 -8 679 -43 1122 -123 168
-31 389 -81 412 -94 10 -6 24 -10 33 -10 8 0 36 -7 62 -15 160 -52 209 -68
218 -75 6 -4 21 -11 35 -15 210 -59 696 -269 950 -411 135 -75 274 -155 320
-184 25 -16 73 -45 108 -66 117 -70 464 -343 642 -505 232 -210 495 -507 696
-786 77 -106 165 -252 178 -294 3 -12 22 -19 68 -24 188 -22 542 -136 771
-251 399 -198 890 -558 1248 -915 72 -71 131 -129 132 -129 9 0 -1 888 -11
995 -14 146 -56 409 -79 500 -9 33 -17 67 -18 75 -5 37 -27 137 -34 155 -5 11
-15 49 -24 85 -32 138 -145 506 -177 575 -5 11 -14 37 -21 58 -7 20 -16 37
-19 37 -3 0 -12 24 -19 53 -16 65 -47 146 -83 215 -15 29 -30 68 -34 87 -3 19
-10 35 -15 35 -5 0 -9 11 -9 25 0 14 -4 25 -10 25 -5 0 -10 6 -10 13 0 7 -8
31 -19 53 -53 111 -81 174 -81 183 0 6 -9 15 -21 21 -11 7 -18 18 -15 25 3 10
0 12 -11 8 -9 -4 -14 -2 -11 3 3 5 1 20 -5 34 -5 14 -9 33 -8 43 1 9 -2 17 -7
17 -5 0 -12 14 -16 31 -4 24 -1 35 11 46 16 13 16 14 -9 9 -24 -5 -29 -2 -34
21 -5 17 -3 28 4 31 18 6 14 40 -5 51 -15 9 -16 12 -3 20 18 12 33 3 26 -15
-3 -8 -1 -14 4 -14 6 0 10 -9 10 -20 0 -11 5 -20 10 -20 6 0 10 5 10 10 0 17
30 11 37 -7 4 -10 12 -22 20 -26 7 -4 13 -17 13 -29 0 -16 3 -18 14 -9 11 9
16 9 22 0 4 -7 2 -15 -4 -17 -7 -2 -12 -8 -12 -13 0 -6 5 -7 12 -3 8 5 9 2 5
-9 -4 -11 1 -20 13 -27 10 -6 27 -24 37 -40 11 -20 23 -28 32 -25 9 3 13 3 9
0 -3 -4 2 -15 13 -26 11 -11 22 -33 26 -49 3 -17 11 -30 18 -30 7 0 31 -37 54
-82 44 -88 62 -120 72 -128 3 -3 20 -36 38 -75 18 -38 56 -119 85 -180 30 -60
56 -122 60 -138 4 -15 18 -53 32 -85 53 -116 123 -307 161 -437 8 -27 18 -59
23 -70 5 -11 13 -40 19 -65 5 -25 27 -117 49 -205 23 -88 48 -200 56 -250 24
-137 64 -394 70 -450 29 -253 35 -783 13 -988 l-14 -118 71 -41 c249 -141 442
-317 611 -553 62 -87 208 -325 276 -452 18 -35 36 -63 39 -63 7 0 141 217 219
352 77 136 257 494 317 635 199 465 363 1037 423 1473 44 317 53 437 58 776 7
457 -10 703 -82 1150 -48 297 -112 584 -176 797 l-30 97 -4614 0 -4615 0 0
-50z m6170 25 c0 -8 5 -15 10 -15 6 0 10 -7 10 -15 0 -9 -6 -12 -15 -9 -8 4
-15 15 -15 25 0 10 -4 19 -10 19 -5 0 -10 -9 -10 -20 0 -23 -8 -25 -33 -5 -11
7 -25 11 -33 8 -14 -5 -19 8 -7 20 3 4 28 7 55 7 36 0 48 -4 48 -15z m-5311
-103 c3 -5 27 -13 53 -17 26 -4 53 -14 60 -23 11 -14 10 -15 -7 -7 -11 4 -76
10 -144 12 -68 2 -132 8 -142 14 -10 5 -40 9 -68 9 -28 0 -51 4 -51 10 0 5
-39 11 -87 13 -49 2 17 3 146 2 148 -1 235 -6 240 -13z m5321 8 c0 -5 -4 -10
-10 -10 -5 0 -10 5 -10 10 0 6 5 10 10 10 6 0 10 -4 10 -10z m70 -71 c0 -5 -4
-9 -10 -9 -5 0 -10 7 -10 16 0 8 5 12 10 9 6 -3 10 -10 10 -16z m-5103 5 c-3
-3 -12 -4 -19 -1 -8 3 -5 6 6 6 11 1 17 -2 13 -5z m69 -13 c-5 -8 -56 -3 -56
5 0 2 14 4 31 4 16 0 28 -4 25 -9z m5029 -51 c3 -5 1 -10 -4 -10 -6 0 -11 5
-11 10 0 6 2 10 4 10 3 0 8 -4 11 -10z m65 -50 c0 -5 -7 -10 -15 -10 -8 0 -15
5 -15 10 0 6 7 10 15 10 8 0 15 -4 15 -10z m49 -35 c-7 -7 -13 -5 -19 5 -15
24 -11 31 10 18 13 -9 16 -16 9 -23z m53 -69 c-4 -6 -8 -2 -10 9 -7 36 -21 40
-28 7 -5 -22 -12 -32 -25 -32 -11 0 -19 5 -19 10 0 6 7 10 15 10 8 0 15 8 15
18 0 10 5 23 12 30 9 9 16 6 29 -15 10 -15 15 -32 11 -37z m-82 34 c0 -5 -5
-10 -11 -10 -5 0 -7 5 -4 10 3 6 8 10 11 10 2 0 4 -4 4 -10z m108 -66 c6 -11
17 -15 31 -11 11 3 21 1 21 -4 0 -5 -13 -9 -29 -9 -36 0 -46 -13 -26 -33 17
-18 20 -47 5 -47 -5 0 -10 9 -10 19 0 11 -7 27 -16 36 -12 11 -13 19 -5 29 15
18 2 27 -20 15 -12 -6 -19 -6 -19 0 0 9 19 17 47 20 7 0 16 -6 21 -15z m72
-53 c0 -6 -4 -13 -10 -16 -5 -3 -10 1 -10 9 0 9 5 16 10 16 6 0 10 -4 10 -9z
m20 -61 c0 -5 -4 -10 -10 -10 -5 0 -10 5 -10 10 0 6 5 10 10 10 6 0 10 -4 10
-10z m-70 -40 c0 -5 -4 -10 -10 -10 -5 0 -10 5 -10 10 0 6 5 10 10 10 6 0 10
-4 10 -10z"/>
<path d="M738 12653 c12 -2 32 -2 45 0 12 2 2 4 -23 4 -25 0 -35 -2 -22 -4z"/>
<path d="M9550 12798 c0 -2 9 -32 20 -68 63 -204 142 -586 184 -888 56 -395
71 -613 71 -1012 -1 -757 -97 -1318 -356 -2075 -46 -132 -181 -445 -280 -645
-143 -292 -391 -724 -495 -865 -25 -33 -42 -65 -39 -73 40 -104 135 -404 160
-505 l33 -132 33 3 c19 2 45 0 58 -3 20 -5 12 -12 -55 -46 -106 -54 -146 -96
-201 -208 -28 -57 -53 -96 -65 -99 -10 -2 -18 -8 -18 -13 0 -5 -7 -9 -16 -9
-13 0 -15 8 -9 53 10 75 56 168 112 228 59 64 24 49 -48 -20 -27 -26 -51 -42
-53 -37 -2 6 -5 5 -5 -2 -1 -7 -5 -11 -10 -8 -10 6 -25 -427 -19 -564 l3 -85
57 3 c66 4 62 10 73 -115 l6 -73 -135 0 -136 0 -2 598 c-2 328 -3 645 -3 705
0 95 -2 107 -17 107 -17 0 -18 -38 -21 -607 l-2 -608 -3 609 -2 608 -22 -6
c-13 -3 -35 -6 -50 -6 l-28 0 0 -532 c0 -293 -3 -610 -7 -705 l-6 -171 -44 -7
c-24 -3 -52 -3 -63 0 -20 6 -20 17 -19 968 1 529 4 1009 8 1066 l6 104 40 11
c26 8 36 14 27 19 -19 12 -102 -3 -152 -28 -79 -40 -81 -44 -92 -222 -5 -87
-12 -160 -15 -163 -3 -3 -3 73 0 167 l6 173 -51 -20 c-70 -26 -95 -53 -108
-114 -5 -28 -15 -206 -21 -396 -6 -190 -12 -383 -13 -429 -3 -68 -7 -87 -22
-98 -15 -11 -19 -11 -27 2 -8 15 -34 19 -61 9 -14 -5 -96 -107 -96 -119 0 -13
-30 -36 -40 -30 -14 9 -14 8 26 -123 20 -64 53 -184 74 -266 37 -140 45 -165
54 -155 2 2 22 74 44 159 23 85 70 243 105 350 l63 195 74 -4 c41 -2 76 -4 77
-5 2 -1 -6 -25 -17 -53 -32 -86 -169 -536 -220 -723 -15 -58 -44 -165 -64
-238 -39 -143 -42 -166 -23 -141 10 13 12 9 12 -26 0 -49 33 -117 55 -112 8 2
14 9 12 15 -1 7 1 12 6 12 15 0 142 126 151 150 8 20 10 9 10 -51 2 -235 -137
-628 -268 -759 -31 -31 -66 -53 -108 -69 -35 -13 -61 -27 -58 -31 3 -5 -13 -6
-35 -4 -36 4 -41 2 -50 -21 -5 -14 -16 -28 -24 -31 -15 -6 -36 -55 -36 -84 0
-40 123 -60 207 -34 48 14 70 30 128 88 78 79 167 207 213 307 79 172 146 404
178 607 16 107 18 113 38 107 12 -4 121 -9 244 -12 204 -5 224 -4 242 12 11
10 20 15 20 10 0 -17 -114 -204 -271 -445 -377 -579 -524 -791 -671 -971 -43
-53 -78 -98 -78 -100 0 -2 242 -1 537 2 296 4 771 7 1056 8 305 0 526 5 536
10 37 20 431 566 654 906 237 362 466 755 666 1148 123 240 320 658 371 787 9
25 38 95 62 155 245 601 437 1206 612 1925 39 162 114 502 125 567 5 32 28
164 50 293 59 351 86 559 130 1010 46 463 56 691 55 1245 0 292 -4 583 -8 648
l-8 117 -1459 0 c-802 0 -1459 -1 -1459 -2z m-1700 -6200 c0 -7 -11 -35 -24
-63 l-24 -50 -1 57 c-1 55 5 65 37 67 6 1 12 -5 12 -11z m1265 -102 c130 -60
200 -215 206 -456 l2 -85 -226 0 c-125 0 -227 -3 -227 -7 0 -26 26 -119 41
-149 19 -39 73 -90 92 -88 8 0 8 2 0 6 -17 6 -17 23 0 23 19 0 163 93 150 97
-5 2 -40 -12 -77 -32 -37 -19 -80 -35 -94 -34 l-27 0 25 11 c14 6 52 24 86 41
48 24 68 29 97 23 53 -10 55 -24 12 -63 -44 -39 -86 -63 -130 -74 l-30 -7 33
-1 c45 -1 92 20 142 65 l43 39 29 -35 c16 -19 31 -45 34 -56 7 -28 -17 -74
-61 -119 -58 -57 -90 -70 -180 -70 -69 0 -85 4 -120 26 -61 40 -100 85 -139
158 -137 262 -78 649 120 780 60 39 125 42 199 7z m-475 -721 c7 -9 8 -15 2
-15 -5 0 -12 7 -16 15 -3 8 -4 15 -2 15 2 0 9 -7 16 -15z m-216 -250 c14 -11
16 -15 5 -15 -26 0 -59 12 -59 21 0 14 33 10 54 -6z m539 -12 c-7 -2 -19 -2
-25 0 -7 3 -2 5 12 5 14 0 19 -2 13 -5z m-936 -425 c-3 -8 -6 -5 -6 6 -1 11 2
17 5 13 3 -3 4 -12 1 -19z m-37 -120 c-35 -102 -105 -247 -153 -318 -51 -75
-177 -209 -221 -234 -40 -24 -76 -30 -143 -27 -56 2 -36 21 22 21 55 0 74 13
33 23 -19 5 -20 8 -7 23 13 16 11 17 -31 11 -41 -6 -43 -6 -26 8 11 8 26 15
33 15 21 0 127 56 162 86 17 14 34 24 37 21 18 -18 -80 -112 -127 -122 -37 -8
-38 -23 -1 -21 27 2 67 20 88 40 6 6 27 22 47 36 20 14 37 28 37 32 0 3 16 26
37 50 79 94 141 208 208 386 40 103 43 82 5 -30z m-500 -432 c0 -3 -4 -8 -10
-11 -5 -3 -10 -1 -10 4 0 6 5 11 10 11 6 0 10 -2 10 -4z m7 -92 c-3 -3 -12 -4
-19 -1 -8 3 -5 6 6 6 11 1 17 -2 13 -5z"/>
<path d="M8957 6311 c-32 -28 -86 -136 -74 -147 2 -2 44 -8 93 -13 l89 -8 -98
-2 c-63 -1 -96 -5 -92 -11 4 -6 70 -10 166 -10 148 0 160 1 156 18 -3 9 -10
38 -17 65 -8 28 -28 64 -49 89 -32 35 -43 41 -87 45 -46 5 -54 2 -87 -26z"/>
<path d="M12781 12693 c1 -60 5 -171 8 -248 7 -132 8 -126 9 108 1 159 -2 247
-8 247 -6 0 -10 -42 -9 -107z"/>
<path d="M706 12310 c11 -4 56 -10 100 -14 54 -3 66 -3 39 3 -59 12 -164 21
-139 11z"/>
<path d="M938 12275 c23 -8 98 -19 165 -26 67 -6 132 -15 145 -20 13 -5 35 -9
50 -9 50 1 1 17 -88 29 -47 6 -133 18 -191 26 -126 18 -138 18 -81 0z"/>
<path d="M6500 12180 c0 -5 5 -10 11 -10 5 0 7 5 4 10 -3 6 -8 10 -11 10 -2 0
-4 -4 -4 -10z"/>
<path d="M6545 12170 c10 -11 20 -18 23 -15 7 6 -18 35 -31 35 -5 0 -2 -9 8
-20z"/>
<path d="M6525 12100 c3 -5 11 -10 16 -10 6 0 7 5 4 10 -3 6 -11 10 -16 10 -6
0 -7 -4 -4 -10z"/>
<path d="M2116 12001 c5 -4 23 -11 39 -15 l30 -6 -25 15 c-27 16 -60 21 -44 6z"/>
<path d="M2355 11910 c3 -5 8 -10 11 -10 2 0 4 5 4 10 0 6 -5 10 -11 10 -5 0
-7 -4 -4 -10z"/>
<path d="M2400 11900 c0 -5 5 -10 11 -10 5 0 7 5 4 10 -3 6 -8 10 -11 10 -2 0
-4 -4 -4 -10z"/>
<path d="M2458 11863 c7 -3 16 -2 19 1 4 3 -2 6 -13 5 -11 0 -14 -3 -6 -6z"/>
<path d="M2530 11840 c0 -5 5 -10 10 -10 6 0 10 5 10 10 0 6 -4 10 -10 10 -5
0 -10 -4 -10 -10z"/>
<path d="M2595 11810 c-3 -5 1 -10 10 -10 9 0 13 5 10 10 -3 6 -8 10 -10 10
-2 0 -7 -4 -10 -10z"/>
<path d="M2660 11770 c0 -5 5 -10 10 -10 6 0 10 5 10 10 0 6 -4 10 -10 10 -5
0 -10 -4 -10 -10z"/>
<path d="M2955 11630 c28 -12 37 -12 30 0 -3 6 -16 10 -28 9 -21 0 -21 -1 -2
-9z"/>
<path d="M3010 11600 c8 -5 22 -9 30 -9 10 0 8 3 -5 9 -27 12 -43 12 -25 0z"/>
<path d="M3060 11569 c0 -5 5 -7 10 -4 6 3 10 8 10 11 0 2 -4 4 -10 4 -5 0
-10 -5 -10 -11z"/>
<path d="M3120 11540 c0 -6 7 -13 15 -17 24 -9 27 1 5 15 -13 8 -20 8 -20 2z"/>
<path d="M3191 11497 c15 -7 24 -18 21 -26 -3 -8 1 -12 9 -9 8 3 30 -8 49 -25
23 -20 35 -26 38 -17 4 12 -34 49 -51 50 -4 0 -17 9 -29 20 -12 11 -31 20 -42
19 -19 -1 -18 -2 5 -12z"/>
<path d="M12792 11410 c-1 -25 -7 -205 -12 -400 -14 -493 -43 -770 -136 -1320
-92 -540 -252 -1218 -400 -1700 -121 -391 -194 -594 -411 -1145 -203 -514
-645 -1379 -921 -1800 -274 -418 -353 -533 -559 -809 -90 -120 -165 -223 -166
-228 -3 -14 2593 -7 2611 7 1 1 1 1675 -1 3721 -1 2045 -3 3699 -5 3674z"/>
<path d="M3326 11406 c3 -9 11 -16 16 -16 13 0 5 23 -10 28 -7 2 -10 -2 -6
-12z"/>
<path d="M3380 11376 c0 -9 5 -16 10 -16 6 0 10 4 10 9 0 6 -4 13 -10 16 -5 3
-10 -1 -10 -9z"/>
<path d="M3455 11319 c17 -12 36 -27 43 -32 8 -7 12 -5 12 7 0 9 -6 16 -14 16
-8 0 -16 4 -18 9 -1 4 -14 12 -28 16 -24 7 -23 6 5 -16z"/>
<path d="M3527 11275 c3 -8 9 -12 14 -9 12 7 11 11 -5 17 -10 4 -13 1 -9 -8z"/>
<path d="M3560 11251 c0 -5 5 -13 10 -16 6 -3 10 -2 10 4 0 5 -4 13 -10 16 -5
3 -10 2 -10 -4z"/>
<path d="M3600 11218 c0 -21 13 -34 48 -49 18 -8 35 -22 38 -31 3 -10 11 -18
19 -18 7 0 20 -3 29 -6 9 -3 16 -2 16 3 0 14 -88 73 -110 73 -11 0 -19 3 -19
8 3 18 -2 32 -11 32 -5 0 -10 -6 -10 -12z"/>
<path d="M3770 11074 c0 -8 4 -14 9 -14 5 0 16 -3 25 -6 26 -10 18 10 -9 23
-20 9 -25 8 -25 -3z"/>
<path d="M3830 11030 c0 -5 5 -10 10 -10 6 0 10 5 10 10 0 6 -4 10 -10 10 -5
0 -10 -4 -10 -10z"/>
<path d="M3870 11000 c0 -5 5 -10 10 -10 6 0 10 5 10 10 0 6 -4 10 -10 10 -5
0 -10 -4 -10 -10z"/>
<path d="M3957 10923 c3 -10 13 -24 22 -31 9 -7 16 -16 16 -20 0 -4 3 -6 7 -5
9 3 -1 -27 -15 -44 -5 -7 -13 -11 -17 -8 -5 3 -12 0 -15 -6 -5 -6 0 -10 11 -9
31 4 40 0 25 -9 -9 -6 -10 -11 -2 -15 6 -4 11 -2 11 3 0 6 9 11 21 11 15 0 19
-4 15 -16 -4 -9 -2 -22 4 -29 8 -9 8 -15 0 -20 -18 -11 -12 -35 8 -28 9 4 20
11 23 15 5 8 10 -29 10 -75 0 -15 2 -16 15 -2 20 20 31 19 31 -2 -1 -49 4 -73
14 -73 6 0 9 6 6 13 -7 19 8 41 23 32 8 -5 9 -10 1 -18 -7 -7 -7 -16 0 -29 11
-20 3 -42 -12 -33 -5 4 -9 2 -9 -2 0 -5 17 -15 38 -23 25 -9 31 -15 20 -18
-28 -6 -21 -30 10 -34 23 -3 27 -7 24 -30 -2 -19 3 -28 18 -33 11 -3 20 -12
20 -19 0 -7 20 -27 45 -46 25 -19 45 -42 45 -52 0 -10 5 -18 10 -18 6 0 10 -9
10 -20 0 -13 7 -20 18 -20 26 0 67 -36 52 -45 -6 -4 -9 -13 -6 -20 2 -7 0 -17
-6 -23 -8 -8 -4 -14 16 -22 15 -5 24 -15 21 -20 -4 -6 -10 -8 -15 -5 -5 3 -12
0 -15 -6 -5 -8 10 -9 51 -4 33 4 56 5 53 1 -3 -4 -35 -9 -70 -11 -50 -4 -198
-33 -229 -46 -8 -3 -20 -6 -160 -39 -395 -95 -548 -146 -760 -254 -146 -73
-364 -212 -355 -225 3 -5 1 -12 -5 -16 -5 -3 -10 -1 -10 4 0 6 -22 -5 -50 -25
-60 -43 -66 -54 -10 -19 22 14 45 25 52 25 18 1 53 29 53 43 0 7 11 11 25 9
20 -2 22 0 10 8 -12 8 -10 10 10 11 14 1 31 2 37 2 7 -1 11 3 8 7 -3 5 3 11
13 15 11 3 24 15 31 28 6 12 9 14 7 5 -3 -10 -1 -18 4 -18 6 0 10 5 10 11 0 6
7 9 15 5 8 -3 14 0 12 7 -1 6 8 13 21 15 12 2 20 7 17 12 -3 4 3 6 14 3 10 -3
22 0 25 6 4 6 20 8 39 4 42 -8 44 -10 21 -28 -18 -14 -18 -15 3 -12 12 2 26 6
29 10 4 4 12 7 18 7 6 0 3 -5 -7 -11 -9 -6 -14 -15 -11 -21 5 -7 2 -8 -5 -4
-8 5 -14 0 -18 -14 -3 -13 -11 -19 -19 -16 -9 3 -14 -1 -14 -12 0 -10 -13 -26
-30 -35 -16 -10 -30 -23 -30 -28 0 -6 -5 -7 -12 -3 -6 4 -8 3 -4 -4 3 -5 -10
-20 -29 -32 -19 -12 -35 -28 -35 -36 0 -8 -5 -14 -11 -14 -5 0 -7 6 -3 13 4 7
3 9 -2 4 -5 -5 -9 -12 -9 -16 0 -4 -18 -28 -41 -52 -236 -256 -355 -415 -569
-764 -97 -157 -835 -1386 -835 -1390 0 -1 -30 -54 -66 -116 -128 -221 -156
-291 -169 -422 -4 -38 -13 -70 -19 -73 -14 -5 -137 -11 -417 -20 -218 -7 -227
-6 -232 12 -3 12 -5 7 -6 -13 -1 -44 39 -148 86 -219 59 -92 534 -726 683
-914 42 -52 84 -107 95 -121 42 -55 299 -369 379 -464 47 -55 85 -106 85 -112
1 -7 -8 -13 -20 -13 -11 0 -53 -9 -92 -20 -507 -140 -1175 -261 -1822 -330
-55 -5 -119 -13 -142 -16 l-43 -5 0 -221 0 -221 343 7 c319 6 1160 18 2072 31
l390 5 65 -60 c310 -288 481 -408 722 -508 93 -39 265 -92 358 -109 44 -9 44
-9 -39 -16 -47 -5 -90 -12 -95 -16 -6 -5 -27 -12 -46 -15 -90 -18 -171 -40
-176 -47 -3 -5 -13 -9 -24 -9 -11 0 -26 -16 -40 -42 -24 -47 -101 -126 -142
-147 -16 -8 -28 -18 -28 -23 0 -4 -7 -8 -15 -8 -8 0 -22 -8 -32 -19 -10 -10
-29 -22 -43 -26 -13 -4 -33 -18 -43 -31 -10 -13 -27 -24 -37 -24 -11 0 -23 -6
-27 -13 -8 -14 -73 -47 -92 -47 -6 0 -11 -4 -11 -10 0 -15 -38 -50 -54 -50 -7
0 -19 -7 -26 -15 -7 -8 -16 -12 -21 -9 -5 3 -6 -2 -3 -10 4 -10 1 -16 -9 -16
-17 0 -77 -30 -62 -30 6 -1 -10 -10 -35 -20 -28 -12 -37 -19 -25 -20 20 -1 20
-1 1 -12 -21 -12 -57 -11 -596 16 -419 21 -808 57 -1035 96 -75 12 -84 12 -65
-1 11 -8 1 -9 -40 -5 -51 5 -53 4 -25 -8 l30 -13 -30 -7 c-24 -6 -68 -13 -114
-18 -21 -2 -31 4 -25 13 4 8 -1 9 -17 3 -13 -4 -42 -6 -65 -5 -27 1 -45 -4
-54 -14 -7 -8 -20 -15 -29 -15 -13 1 -13 3 3 15 27 20 12 31 -17 12 -21 -14
-24 -14 -35 1 -9 15 -12 15 -21 3 -8 -12 -11 -10 -16 12 -6 24 -11 26 -45 23
-34 -4 -39 -1 -45 21 -3 15 -11 23 -19 20 -10 -4 -12 0 -9 14 3 10 0 26 -7 34
-6 8 -9 18 -6 24 3 5 3 11 -1 14 -5 2 -3 2 4 1 7 -2 15 1 18 5 2 5 -7 12 -23
15 -15 4 -68 27 -118 51 -109 53 -144 88 -145 148 0 33 -2 38 -9 22 -5 -11 -9
-324 -10 -695 0 -371 -2 -718 -5 -770 -11 -259 -6 -330 22 -330 10 0 14 -6 10
-19 -3 -11 1 -22 8 -25 8 -3 15 -20 17 -38 2 -19 9 -33 16 -33 7 0 17 -6 21
-14 5 -7 14 -10 20 -7 6 4 11 0 11 -9 0 -11 -5 -15 -16 -11 -12 5 -15 0 -12
-19 2 -14 7 -24 11 -23 16 5 39 -52 27 -66 -8 -10 -6 -15 8 -18 13 -4 18 -13
17 -29 -1 -13 1 -28 5 -34 4 -5 8 -17 9 -25 1 -8 7 -50 13 -93 11 -70 14 -77
35 -77 16 0 23 -6 23 -18 0 -11 9 -27 20 -37 12 -11 18 -25 15 -36 -4 -11 1
-21 11 -27 11 -6 15 -17 12 -29 -4 -15 -1 -19 11 -16 12 3 17 -3 19 -21 1 -20
-4 -25 -26 -29 l-27 -4 31 -7 c25 -6 33 -15 38 -37 4 -21 11 -29 26 -29 11 0
20 -3 21 -7 0 -5 3 -17 6 -28 2 -11 6 -38 7 -60 1 -28 7 -41 19 -43 9 -2 20
-15 23 -28 4 -17 11 -23 21 -19 12 4 14 -1 9 -27 -7 -41 7 -69 26 -50 21 21
38 14 38 -15 0 -21 -3 -24 -10 -13 -8 12 -10 12 -16 -3 -3 -9 -3 -25 0 -34 6
-15 8 -15 16 -3 8 12 10 10 10 -7 0 -12 -7 -26 -16 -31 -12 -7 -15 -17 -10
-36 l6 -26 2693 2 c1480 1 2636 5 2567 8 -83 3 -114 7 -94 12 18 4 48 4 68 1
23 -3 36 -2 36 5 0 15 64 32 118 32 23 0 42 5 42 10 0 6 11 10 24 10 13 0 26
5 28 12 2 6 29 15 59 19 80 11 161 29 183 41 11 6 39 10 63 10 28 -1 42 3 40
11 -1 7 11 13 28 15 17 2 44 10 62 18 17 7 38 14 46 14 9 0 19 5 22 11 4 6 13
8 21 5 8 -3 14 -2 14 3 0 5 29 11 65 15 36 4 82 15 103 25 20 11 57 22 82 26
48 7 100 26 100 36 0 14 50 16 61 3 16 -20 29 -17 29 5 0 10 9 21 20 24 13 3
20 0 20 -10 0 -8 4 -12 9 -9 5 3 7 16 4 27 -5 18 -3 20 16 14 13 -4 21 -2 21
5 0 7 7 10 15 6 9 -3 25 4 37 16 15 15 23 18 26 9 3 -8 9 -5 19 9 10 15 18 18
27 11 8 -7 15 -4 24 10 7 10 21 19 32 19 13 0 22 9 26 26 4 17 9 22 14 14 13
-21 32 0 25 27 -5 23 -4 25 18 20 18 -5 27 0 41 23 9 17 22 30 27 30 5 0 9 6
8 13 -4 21 12 51 39 74 15 12 22 26 18 30 -5 4 -11 2 -13 -4 -9 -24 -23 -13
-23 17 0 20 5 30 15 30 8 0 15 5 15 11 0 6 -9 8 -20 4 -15 -5 -20 -2 -20 13 0
15 5 19 20 15 15 -4 20 0 20 15 0 11 -7 23 -16 26 -13 5 -14 9 -4 21 7 8 19
15 26 15 17 0 19 17 2 22 -17 6 57 78 81 78 11 0 40 11 64 24 24 14 53 25 63
25 32 -1 115 9 184 21 179 31 217 36 630 85 118 14 240 29 270 34 30 5 82 12
115 16 249 26 878 148 1085 210 318 96 468 157 606 247 107 71 131 103 139
189 8 94 16 1110 9 1203 -6 73 -11 93 -32 118 -28 33 -42 31 -18 -4 26 -36 20
-83 -14 -122 -57 -64 -282 -158 -380 -158 -37 -1 -47 -3 -30 -7 l25 -7 -25 -7
c-37 -10 -59 -9 -42 2 11 6 8 14 -14 36 -18 18 -28 40 -30 64 -6 97 -18 161
-28 158 -6 -3 -10 -10 -8 -16 1 -6 -2 -11 -6 -11 -5 0 -8 32 -6 70 2 64 -6 88
-20 58 -3 -7 -4 1 -3 17 1 20 -2 29 -11 27 -8 -1 -11 2 -8 7 4 5 2 11 -4 13
-5 1 -10 20 -12 41 -1 20 -6 37 -11 37 -4 0 -6 4 -3 9 7 11 -112 43 -284 75
-412 77 -723 108 -1455 146 -110 5 -240 12 -290 15 -108 6 -502 22 -750 30
-99 4 -183 9 -187 12 -5 2 -30 -13 -56 -35 -54 -45 -197 -140 -257 -170 -75
-37 -183 -71 -261 -81 -44 -6 -263 -24 -489 -41 -225 -17 -531 -40 -680 -51
-148 -11 -448 -34 -665 -51 -454 -35 -494 -34 -675 27 -244 82 -486 238 -722
468 -166 161 -385 425 -547 657 -40 58 -109 156 -154 218 -45 63 -79 119 -75
124 3 6 2 8 -4 5 -5 -3 -27 22 -50 56 -22 34 -64 95 -93 136 -29 40 -47 70
-40 66 8 -5 11 -3 8 6 -3 8 -10 13 -16 12 -6 -2 -21 12 -33 30 l-23 32 24 -20
c24 -21 -60 105 -251 375 -61 85 -165 238 -233 340 -410 617 -396 586 -323
742 24 52 61 123 81 158 20 34 35 64 33 67 -3 2 -33 -46 -67 -107 -34 -62 -64
-109 -67 -106 -11 10 242 454 382 671 42 66 153 245 229 370 34 55 81 129 105
165 25 36 68 99 96 140 82 121 214 301 263 360 126 151 336 344 482 444 64 44
75 54 40 36 -95 -50 -358 -259 -465 -371 -84 -89 -158 -174 -163 -190 -2 -5
-9 -6 -14 -3 -6 4 -8 3 -5 -3 3 -5 -9 -25 -28 -43 -19 -19 -35 -38 -35 -42 0
-16 -52 -58 -63 -51 -7 4 -8 0 -4 -12 5 -12 -1 -25 -20 -41 -16 -13 -31 -24
-34 -24 -3 0 -30 -31 -60 -70 -30 -38 -59 -69 -66 -70 -7 0 -20 -16 -29 -36
-18 -37 -65 -67 -91 -57 -8 3 -13 -3 -13 -16 0 -12 -8 -25 -18 -28 -21 -9 -51
-44 -52 -61 0 -9 -7 -11 -21 -7 -15 5 -22 2 -26 -14 -3 -13 -14 -21 -27 -21
-19 -1 -19 -2 -3 -11 23 -13 13 -29 -19 -29 -23 0 -25 -3 -19 -28 5 -25 3 -28
-22 -27 -21 0 -27 -4 -25 -17 3 -21 -54 -64 -62 -46 -3 7 -2 0 1 -16 4 -18 2
-27 -4 -23 -12 8 -38 -20 -47 -50 -4 -13 -13 -22 -19 -20 -7 1 -11 -6 -11 -15
1 -10 -2 -16 -6 -13 -4 3 -15 -10 -23 -28 -9 -18 -25 -41 -36 -51 -11 -10 -18
-22 -15 -27 2 -4 -4 -13 -15 -18 -10 -6 -22 -22 -25 -36 -4 -14 -11 -25 -16
-25 -6 0 -10 -8 -10 -19 0 -10 -10 -29 -23 -42 -27 -29 -110 -187 -133 -255
-23 -67 -14 -147 25 -230 17 -37 29 -69 27 -72 -8 -7 -65 89 -76 128 -14 51
-12 119 6 181 31 108 243 482 624 1104 84 138 208 342 275 455 213 359 337
553 449 700 282 371 589 636 945 814 279 140 649 235 920 236 l76 0 -40 19
c-22 10 -48 31 -57 47 -26 45 -158 212 -252 318 -10 12 -35 41 -55 66 -96 119
-367 392 -410 415 -28 14 -30 14 -24 -2z m123 -183 c0 -5 -5 -10 -11 -10 -5 0
-7 5 -4 10 3 6 8 10 11 10 2 0 4 -4 4 -10z m210 -320 c0 -5 -4 -10 -10 -10 -5
0 -10 5 -10 10 0 6 5 10 10 10 6 0 10 -4 10 -10z m-2612 -3945 c-6 -14 -13
-23 -15 -21 -5 5 15 46 22 46 3 0 -1 -11 -7 -25z m5644 -3165 c76 -10 207 -21
246 -20 13 0 22 -6 22 -15 0 -13 -22 -15 -140 -14 -79 0 -140 4 -140 10 0 5
-5 9 -11 9 -5 0 -7 -4 -4 -10 15 -25 -98 -8 -225 33 l-45 15 112 1 c61 1 145
-3 185 -9z m-296 -25 c44 -9 111 -22 149 -31 39 -8 97 -19 130 -24 58 -10 112
-21 165 -35 14 -3 32 -8 40 -9 8 -1 28 -8 43 -14 16 -7 47 -15 70 -19 23 -3
57 -17 75 -31 18 -14 44 -26 59 -28 14 -1 29 -8 33 -15 4 -6 25 -13 46 -15 25
-2 44 -10 53 -24 7 -11 21 -20 31 -20 9 0 25 -9 35 -20 10 -11 24 -20 30 -20
7 0 18 -7 25 -15 7 -8 31 -18 53 -22 27 -4 41 -12 44 -24 3 -11 13 -19 23 -19
10 0 25 -11 34 -24 19 -31 55 -43 68 -25 7 11 8 9 4 -4 -4 -13 0 -20 14 -24
11 -3 20 -9 20 -14 0 -5 14 -9 30 -9 26 0 30 -4 30 -26 0 -18 4 -24 13 -21 18
7 41 -29 24 -37 -7 -3 -2 -3 10 0 14 3 25 -1 32 -13 8 -13 13 -15 19 -6 5 8
14 3 27 -17 11 -17 26 -30 33 -30 6 0 11 -6 10 -12 -2 -8 -35 -17 -83 -24 -75
-11 -77 -11 -28 -13 80 -2 740 46 1023 75 643 64 1174 169 1414 278 94 43 121
46 110 14 -10 -31 -6 -259 6 -388 16 -168 14 -702 -3 -742 -18 -43 -96 -115
-172 -159 -344 -199 -993 -349 -1950 -449 -368 -38 -1147 -93 -1279 -89 -42 1
-39 3 28 14 29 5 36 9 25 16 -10 6 -1 9 28 9 24 0 48 7 57 16 18 17 21 28 6
19 -15 -9 -30 4 -24 20 4 11 14 13 33 8 23 -6 25 -5 13 10 -8 9 -11 20 -8 25
3 6 1 24 -5 41 -8 21 -17 31 -32 31 -20 0 -20 0 -1 14 12 9 21 11 25 4 4 -5
10 11 13 36 4 25 11 48 17 51 5 4 9 17 9 30 0 13 5 27 10 30 17 10 11 25 -12
34 -20 8 -21 10 -5 16 9 4 17 15 17 25 0 25 20 36 31 19 7 -9 7 -5 3 14 -5 21
-3 27 11 27 14 0 15 3 6 14 -7 8 -21 12 -34 8 -21 -5 -21 -4 -4 15 9 11 17 28
17 39 0 10 7 27 14 37 13 17 15 17 24 1 6 -10 12 -13 16 -6 4 6 -3 16 -14 22
-15 8 -18 15 -11 28 4 9 7 22 4 28 -2 5 8 21 22 34 31 29 32 40 3 41 l-23 0
23 11 c25 13 29 28 7 28 -8 0 -15 5 -15 11 0 7 9 9 24 5 23 -6 24 -3 31 54 4
33 11 60 16 60 5 0 4 12 -1 26 -21 53 -9 145 19 143 10 0 11 -2 4 -6 -18 -7
-16 -43 2 -43 9 0 15 9 15 23 0 13 6 29 13 36 10 11 9 13 -5 8 -14 -5 -18 -1
-18 18 0 33 18 41 29 13 8 -19 10 -15 10 25 1 26 -3 47 -9 47 -5 0 -10 -10
-10 -22 0 -16 -3 -19 -11 -11 -15 15 -2 53 19 54 14 1 14 2 -1 6 -15 4 -18 12
-15 44 2 21 0 39 -4 39 -16 0 -7 16 10 18 9 1 42 6 72 11 61 11 69 11 -495
-12 -558 -22 -3223 -8 -3734 19 l-125 7 50 17 c85 29 102 38 114 61 9 16 14
19 20 9 6 -9 11 -2 15 23 6 31 45 84 45 61 0 -5 12 10 26 34 14 23 30 42 35
42 6 0 15 14 20 30 6 17 17 30 25 30 8 0 19 10 25 23 6 13 19 27 29 32 10 6
53 34 94 62 136 95 195 125 302 151 116 30 243 43 994 102 135 10 441 35 680
55 239 20 485 40 545 45 135 10 257 5 361 -15z m3414 -399 c0 -2 -7 -7 -16
-10 -8 -3 -12 -2 -9 4 6 10 25 14 25 6z m-9794 -243 c-10 -10 -19 5 -10 18 6
11 8 11 12 0 2 -7 1 -15 -2 -18z m269 -22 c3 -5 1 -12 -5 -16 -5 -3 -10 1 -10
9 0 18 6 21 15 7z m-65 -21 c0 -5 -4 -10 -10 -10 -5 0 -10 5 -10 10 0 6 5 10
10 10 6 0 10 -4 10 -10z m7027 -322 c-3 -8 -6 -5 -6 6 -1 11 2 17 5 13 3 -3 4
-12 1 -19z m-187 -785 c0 -19 -13 -9 -16 12 -1 8 2 13 7 9 5 -3 9 -12 9 -21z"/>
<path d="M8458 2633 c7 -3 16 -2 19 1 4 3 -2 6 -13 5 -11 0 -14 -3 -6 -6z"/>
<path d="M7990 2309 c0 -5 5 -7 10 -4 6 3 10 8 10 11 0 2 -4 4 -10 4 -5 0 -10
-5 -10 -11z"/>
<path d="M7890 2154 c0 -14 4 -23 10 -19 6 3 10 15 10 26 0 10 -4 19 -10 19
-5 0 -10 -12 -10 -26z"/>
<path d="M7785 1720 c3 -5 8 -10 11 -10 2 0 4 5 4 10 0 6 -5 10 -11 10 -5 0
-7 -4 -4 -10z"/>
<path d="M3911 10914 c0 -11 3 -14 6 -6 3 7 2 16 -1 19 -3 4 -6 -2 -5 -13z"/>
<path d="M3260 9610 c-18 -12 -2 -12 25 0 13 6 15 9 5 9 -8 0 -22 -4 -30 -9z"/>
<path d="M4198 8673 c23 -2 59 -2 80 0 20 2 1 4 -43 4 -44 0 -61 -2 -37 -4z"/>
<path d="M4328 8673 c7 -3 16 -2 19 1 4 3 -2 6 -13 5 -11 0 -14 -3 -6 -6z"/>
<path d="M4458 8673 c12 -2 32 -2 45 0 12 2 2 4 -23 4 -25 0 -35 -2 -22 -4z"/>
<path d="M4108 8663 c7 -3 16 -2 19 1 4 3 -2 6 -13 5 -11 0 -14 -3 -6 -6z"/>
<path d="M4688 8663 c18 -2 45 -2 60 0 15 2 0 4 -33 4 -33 0 -45 -2 -27 -4z"/>
<path d="M3773 8626 c-88 -36 -157 -76 -293 -166 -47 -31 -96 -64 -110 -72
-43 -27 -210 -198 -210 -215 0 -5 -7 -18 -16 -29 -8 -10 -13 -12 -9 -4 3 8 0
7 -7 -3 -7 -10 -30 -36 -50 -58 -21 -22 -38 -45 -38 -50 0 -12 -31 -57 -83
-121 -21 -27 -40 -54 -41 -60 -1 -7 -17 -41 -34 -75 -18 -34 -32 -71 -32 -82
0 -11 -4 -21 -10 -23 -10 -3 -49 -140 -55 -190 -2 -14 -5 -30 -8 -35 -3 -5 -8
-45 -12 -88 -3 -44 -8 -102 -10 -130 -9 -120 -29 -1062 -24 -1190 0 -11 0 -27
-1 -35 -7 -118 6 -495 20 -554 5 -22 6 -44 4 -48 -3 -5 0 -15 6 -23 6 -8 9
-19 6 -24 -9 -14 25 -151 36 -151 5 0 7 -4 4 -9 -3 -4 6 -37 19 -72 14 -34 25
-71 25 -81 0 -10 5 -18 11 -18 6 0 8 -9 4 -20 -4 -11 -2 -20 4 -20 6 0 14 -12
17 -27 4 -16 16 -44 27 -63 11 -19 32 -57 46 -85 22 -45 65 -107 99 -143 6 -7
12 -20 12 -28 0 -8 7 -17 15 -20 8 -4 15 -12 15 -19 0 -6 22 -35 49 -64 27
-29 60 -67 73 -86 12 -19 28 -35 34 -35 5 0 23 -14 39 -30 16 -16 35 -30 42
-30 8 0 16 -6 19 -14 3 -8 18 -19 34 -26 16 -7 31 -18 34 -26 3 -8 14 -14 24
-14 10 0 22 -3 26 -7 4 -5 11 -8 14 -9 18 -2 62 -24 62 -31 0 -8 15 -16 93
-48 20 -8 37 -20 37 -25 0 -5 7 -7 15 -4 8 4 21 2 28 -3 14 -12 102 -45 172
-66 143 -44 455 -78 473 -52 4 6 67 11 147 11 245 2 318 4 385 12 l65 7 -50 6
c-46 5 -43 6 30 8 86 3 194 18 140 20 -16 0 -109 -4 -205 -9 -508 -28 -703 -4
-952 120 -97 48 -262 151 -274 171 -8 13 28 -5 69 -34 16 -10 30 -17 33 -15 2
3 -28 27 -68 54 -103 68 -221 191 -303 316 -70 105 -179 310 -190 358 -4 14
18 -24 48 -85 59 -120 194 -327 265 -406 24 -27 70 -69 101 -93 64 -49 104
-71 51 -29 -216 174 -428 538 -501 863 -12 54 -22 157 -28 285 -11 217 -28
1608 -23 1820 8 314 69 516 231 763 78 119 62 111 -23 -11 -86 -124 -210 -348
-236 -426 -11 -35 -28 -111 -37 -170 -14 -95 -15 -172 -4 -726 12 -658 13
-979 2 -1085 l-6 -65 -7 105 c-15 213 -30 1006 -27 1367 2 204 2 369 -1 366
-3 -2 -10 -32 -16 -66 l-12 -62 -1 75 c-4 239 100 508 284 740 71 89 206 215
296 275 71 48 242 139 304 162 17 6 23 11 15 12 -8 0 -52 -15 -97 -33z m-412
-3953 c13 -16 12 -17 -3 -4 -10 7 -18 15 -18 17 0 8 8 3 21 -13z"/>
<path d="M4910 8648 c243 -20 307 -41 371 -125 37 -47 41 -57 31 -74 -11 -17
-9 -24 18 -50 l30 -31 -42 6 c-41 6 -39 5 19 -18 142 -54 233 -132 345 -297
51 -76 217 -333 386 -597 35 -55 76 -109 92 -120 20 -15 56 -25 122 -33 51 -6
97 -15 103 -20 5 -6 4 -9 -4 -9 -25 0 -123 -126 -171 -220 -23 -45 -38 -64
-56 -71 -6 -2 1 -29 19 -69 17 -37 32 -58 34 -50 10 33 71 146 186 342 30 51
70 122 90 158 20 36 52 82 72 103 56 56 22 44 -43 -15 -31 -29 -59 -56 -62
-60 -10 -13 -27 7 -85 97 -32 50 -72 113 -90 140 -18 28 -113 181 -210 340
-235 383 -257 415 -307 455 l-43 35 47 -60 c42 -54 105 -154 223 -350 67 -111
136 -221 211 -338 38 -59 97 -151 132 -205 82 -127 104 -170 92 -177 -5 -3
-17 2 -27 12 -10 10 -133 202 -273 426 -287 461 -383 595 -485 680 -94 79
-223 140 -350 166 -101 20 -338 42 -431 40 -28 -1 -5 -6 56 -11z"/>
<path d="M5451 8596 c10 -9 109 -56 109 -51 0 5 -95 55 -106 55 -4 0 -5 -2 -3
-4z"/>
<path d="M3875 8337 c-112 -61 -215 -137 -273 -205 -51 -59 -142 -193 -142
-210 0 -5 -7 -15 -15 -22 -20 -16 -48 -78 -69 -150 -29 -97 -39 -286 -33 -617
3 -172 3 -454 0 -627 l-6 -314 -24 2 c-12 0 -23 6 -23 11 0 6 -4 4 -8 -3 -6
-9 -13 -8 -28 6 -11 10 -29 21 -41 24 -20 5 -22 1 -28 -78 -4 -45 -6 -209 -4
-363 3 -155 2 -281 -2 -281 -6 0 -19 262 -19 402 0 48 -4 89 -9 93 -6 3 -9
-104 -6 -287 5 -389 26 -495 145 -738 65 -133 68 -138 145 -225 24 -27 45 -56
45 -62 0 -7 7 -13 15 -13 8 0 15 -8 15 -17 0 -13 3 -14 12 -5 7 7 16 12 20 12
13 0 9 -28 -4 -33 -7 -3 11 -3 40 0 33 3 52 1 52 -6 0 -6 9 -11 20 -11 11 0
20 -6 20 -14 0 -15 35 -32 56 -28 7 1 14 -7 17 -18 3 -14 13 -20 32 -20 17 0
34 -9 46 -25 12 -14 26 -22 34 -18 8 3 15 1 15 -4 0 -5 12 -10 27 -11 14 -1
34 -8 42 -16 23 -21 74 -40 65 -24 -5 8 -2 9 12 4 10 -4 24 -9 29 -10 6 -1 24
-6 40 -12 67 -24 103 -34 128 -34 14 0 38 -5 54 -11 76 -29 266 -39 626 -34
269 5 357 3 357 -5 0 -7 7 -9 16 -6 22 9 37 -3 25 -18 -17 -21 14 -75 39 -69
11 3 20 0 20 -6 0 -6 6 -11 14 -11 7 0 26 -12 41 -27 l27 -28 -53 -8 c-30 -5
-148 -14 -264 -21 l-210 -13 130 -1 c254 -3 735 33 873 64 111 25 205 84 269
169 61 81 380 634 493 853 23 45 46 82 50 82 5 0 21 5 35 10 22 9 25 13 15 25
-8 9 -18 12 -29 6 -23 -12 -149 -13 -156 -1 -3 6 4 10 17 10 13 0 30 4 38 10
9 5 19 5 27 -2 14 -11 43 -4 43 11 0 10 -43 18 -137 27 -63 6 -124 -7 -153
-32 -9 -7 -31 -16 -50 -19 -77 -14 -127 -47 -173 -115 -55 -81 -87 -131 -87
-135 0 -3 -11 -22 -23 -43 -13 -20 -50 -89 -83 -152 -32 -63 -64 -119 -71
-123 -7 -4 -13 -16 -13 -25 0 -15 -144 -242 -154 -242 -2 0 -27 -4 -56 -10
-79 -15 -614 -41 -995 -49 -278 -5 -325 -8 -260 -15 87 -10 1126 27 1269 45
75 9 178 52 256 106 24 17 24 17 10 -1 -7 -10 -37 -31 -65 -47 -40 -24 -44
-28 -20 -23 65 15 128 66 184 149 36 52 228 390 299 525 79 151 109 192 135
188 12 -2 21 -7 21 -11 -3 -15 -296 -550 -361 -659 -81 -136 -127 -187 -202
-227 -106 -56 -175 -63 -1004 -102 -493 -23 -667 -4 -897 98 -313 138 -563
482 -655 903 -24 108 -37 730 -32 1545 4 699 4 695 53 850 23 71 94 211 144
285 77 114 203 222 339 292 30 15 48 28 40 28 -8 0 -50 -20 -94 -43z m2225
-3929 c-69 -62 -200 -122 -200 -90 0 4 37 25 83 46 45 21 98 50 117 62 51 35
51 29 0 -18z m-373 -154 c-3 -3 -12 -4 -19 -1 -8 3 -5 6 6 6 11 1 17 -2 13 -5z"/>
<path d="M4154 8369 c-83 -14 -215 -66 -300 -119 -134 -82 -240 -204 -326
-375 -42 -82 -73 -163 -66 -170 3 -3 15 23 28 57 100 282 318 491 581 559 77
20 97 21 249 14 207 -10 305 -14 447 -17 67 -2 113 -7 113 -13 0 -5 4 -5 8 2
5 8 23 10 52 6 33 -5 39 -8 25 -13 -15 -5 -11 -9 20 -14 67 -13 163 -46 189
-67 13 -10 28 -19 33 -19 17 0 124 -110 181 -186 123 -167 182 -259 321 -504
14 -25 29 -46 33 -48 4 -2 8 -9 8 -15 0 -7 18 -40 40 -73 41 -64 87 -95 139
-97 41 -2 151 14 151 22 0 3 -6 15 -14 26 -7 11 -42 72 -78 135 -167 298 -367
598 -462 694 -139 141 -248 172 -716 206 -274 20 -567 24 -656 9z"/>
<path d="M7603 8023 c-43 -49 -122 -140 -175 -203 -53 -63 -116 -135 -139
-160 -63 -68 -217 -264 -284 -363 -101 -149 -164 -240 -170 -246 -11 -10 27
76 95 214 84 173 194 325 399 550 20 22 79 88 131 145 52 58 102 114 110 124
14 18 14 19 -5 8 -11 -6 -43 -30 -70 -54 -53 -45 -425 -416 -425 -423 0 -2
-10 -15 -22 -28 -40 -40 -78 -87 -78 -93 0 -4 -15 -27 -34 -53 -62 -85 -367
-641 -352 -641 3 0 14 17 25 39 16 30 26 38 48 38 15 0 77 3 137 7 87 5 114
10 130 25 18 16 33 18 108 13 l88 -4 10 28 c76 202 277 477 594 809 89 94 166
177 170 185 4 8 -70 -64 -166 -160 -264 -265 -420 -462 -562 -707 -58 -102
-87 -129 -94 -91 -7 35 119 256 237 418 114 157 374 438 539 584 25 22 42 45
40 54 -3 20 -57 47 -108 56 -32 5 -33 4 -16 -9 18 -13 16 -15 -22 -21 -34 -5
-53 -19 -119 -88 -43 -44 -90 -97 -105 -117 -46 -60 -78 -90 -88 -84 -5 3 -7
0 -5 -8 6 -14 -73 -102 -83 -92 -4 3 0 10 7 14 7 5 11 13 7 19 -3 6 -1 14 7
19 7 4 28 28 47 53 19 25 47 59 62 75 15 17 50 57 77 90 81 98 106 126 137
146 20 13 24 19 12 19 -9 0 -52 -39 -95 -87z m-266 -369 c-3 -3 -12 -4 -19 -1
-8 3 -5 6 6 6 11 1 17 -2 13 -5z m-17 -20 c0 -3 -13 -19 -30 -37 -30 -32 -40
-54 -18 -41 7 4 8 3 4 -5 -4 -6 -11 -9 -16 -6 -4 3 -23 -13 -40 -36 -23 -28
-36 -37 -43 -30 -13 13 30 64 46 54 6 -4 8 0 4 11 -4 9 -3 15 1 13 4 -2 15 4
24 14 12 12 13 19 5 23 -7 2 -4 5 5 5 10 1 22 10 28 21 10 18 30 28 30 14z"/>
<path d="M3445 7660 c-4 -17 -5 -34 -2 -36 2 -3 7 10 11 27 8 42 0 50 -9 9z"/>
<path d="M6625 7520 c-16 -7 -17 -9 -3 -9 9 -1 20 4 23 9 7 11 7 11 -20 0z"/>
<path d="M6660 7517 c0 -7 -17 -40 -38 -73 -22 -32 -54 -86 -72 -118 -18 -33
-57 -100 -87 -150 -31 -50 -82 -140 -114 -201 -32 -60 -71 -124 -87 -142 l-29
-31 18 -53 c18 -51 35 -78 42 -68 2 2 46 87 97 189 106 212 302 570 337 616
12 17 23 34 23 37 0 4 -20 7 -45 7 -30 0 -45 -4 -45 -13z"/>
<path d="M3868 7255 c-3 -3 -31 -7 -63 -9 -31 -2 -60 -7 -64 -12 -3 -5 -24
-18 -46 -29 -22 -10 -68 -43 -103 -72 -35 -29 -70 -53 -77 -53 -7 0 -16 -7
-19 -16 -5 -12 -8 -13 -20 -2 -11 11 -11 17 3 38 9 14 23 30 31 37 13 11 13
12 0 13 -8 0 -28 -12 -44 -26 -23 -22 -30 -24 -38 -13 -11 16 -1 -1496 10
-1592 l7 -56 60 13 c62 13 166 32 223 40 17 3 32 10 32 15 0 10 -97 6 -156 -6
-18 -4 -22 1 -26 28 -3 17 -5 343 -4 722 l1 690 28 53 c16 30 52 78 81 108 29
30 50 54 48 54 -15 0 -90 -72 -114 -110 -19 -28 -27 -36 -23 -20 15 48 80 119
149 160 41 25 43 25 201 38 l100 9 -86 2 c-47 0 -88 -1 -91 -4z"/>
<path d="M3933 7020 c-76 -16 -123 -51 -157 -117 -18 -36 -23 -80 -6 -53 8 12
15 9 45 -20 34 -32 73 -104 67 -123 -1 -5 2 -24 7 -43 6 -22 6 -36 -1 -40 -6
-4 -7 -26 -3 -54 5 -37 3 -51 -10 -64 -15 -15 -13 -16 25 -16 53 0 93 19 149
70 l43 40 -5 -29 c-6 -28 -5 -30 23 -26 16 2 34 6 40 10 16 10 0 -27 -23 -52
-38 -43 -101 -58 -239 -58 -135 0 -166 -9 -72 -21 74 -9 206 2 268 23 75 24
150 102 171 177 25 86 17 198 -18 259 -62 105 -185 160 -304 137z"/>
<path d="M5700 7000 c0 -24 -4 -30 -21 -30 -11 0 -34 -10 -51 -21 -27 -19 -29
-26 -25 -63 3 -22 20 -90 37 -151 17 -60 33 -117 34 -125 4 -17 11 -37 37 -98
10 -23 14 -40 9 -37 -5 3 1 -18 14 -47 43 -97 58 -184 59 -323 0 -114 -3 -140
-26 -210 -81 -243 -185 -343 -364 -353 -69 -4 -93 -1 -143 18 -159 59 -276
259 -287 490 -10 199 45 368 162 497 56 62 154 123 199 123 12 0 28 5 36 11
34 24 -79 -1 -140 -32 -35 -17 -69 -32 -76 -33 -20 -3 -94 -58 -94 -70 0 -7
-3 -6 -8 2 -6 9 -14 5 -30 -13 -21 -23 -50 -27 -36 -4 3 5 10 7 15 4 5 -4 9 1
9 9 0 9 9 25 20 36 22 22 15 31 -15 20 -35 -13 -55 -46 -62 -99 -4 -34 -10
-51 -20 -51 -24 0 -88 -37 -121 -71 -57 -58 -62 -95 -62 -455 0 -177 3 -334 6
-350 5 -24 18 -35 77 -64 69 -33 77 -35 177 -34 58 0 169 6 247 13 125 11 146
10 172 -3 38 -20 94 -20 263 -1 130 15 232 37 242 53 3 5 -42 7 -99 5 l-103
-3 18 38 c10 20 40 87 68 147 28 61 116 247 196 414 80 168 146 313 146 323 0
18 -83 222 -181 445 -53 119 -55 122 -86 123 -17 0 -35 -5 -38 -10 -4 -7 -13
-6 -27 1 -20 11 -21 10 -14 -31 4 -28 3 -39 -4 -35 -6 3 -8 10 -5 15 3 4 -2
13 -11 20 -8 7 -13 19 -10 27 4 10 -6 13 -39 13 -43 0 -45 -1 -45 -30z"/>
<path d="M6753 6780 c-17 -10 -37 -28 -43 -40 -11 -21 -32 -24 -31 -5 0 6 -10
13 -21 18 -26 9 -88 -35 -88 -63 0 -10 -5 -20 -12 -22 -6 -2 -12 -15 -13 -29
-1 -16 -8 -25 -23 -27 -24 -4 -22 12 7 58 14 22 22 39 45 105 4 11 -10 -11
-31 -50 -22 -38 -65 -115 -96 -171 l-57 -100 46 -105 c25 -57 72 -169 103
-249 61 -152 152 -369 202 -481 16 -36 29 -69 29 -72 0 -4 -47 -7 -104 -7
l-104 0 -45 108 c-25 59 -68 163 -96 232 -27 69 -72 179 -100 245 l-49 119
-52 -109 c-75 -158 -209 -455 -205 -455 2 0 13 15 25 33 12 17 19 24 16 14 -4
-11 3 -31 17 -50 13 -18 39 -62 57 -99 29 -60 38 -69 82 -88 35 -15 87 -24
172 -31 192 -15 284 -13 466 12 164 22 296 38 311 39 10 0 23 -16 33 -40 22
-55 20 -79 -6 -90 -18 -7 -8 -9 39 -9 52 -1 66 3 93 25 17 15 38 40 46 56 9
16 18 28 21 25 2 -3 -7 -25 -21 -50 -15 -25 -24 -51 -20 -61 7 -18 40 -21 80
-6 35 14 41 7 15 -19 -26 -26 -75 -27 -93 -3 -11 14 -30 17 -124 17 -65 0
-117 -5 -125 -11 -8 -6 -27 -14 -43 -18 -16 -4 -43 -22 -61 -39 -57 -58 -55
-185 4 -217 26 -14 147 -11 250 6 47 7 88 11 91 9 13 -8 133 16 159 31 14 8
17 12 6 8 -11 -4 -52 -9 -92 -12 l-72 -4 -6 33 c-9 54 -23 174 -20 177 2 2 12
-1 23 -7 31 -17 114 -13 141 6 13 9 42 55 64 102 54 114 53 149 -6 361 -76
274 -144 507 -191 660 -25 79 -43 147 -40 150 3 3 36 8 72 11 l67 6 -90 1
c-67 1 -86 -1 -75 -9 12 -9 11 -9 -5 -3 -33 13 -265 17 -265 5 0 -7 38 -11
110 -11 l110 0 0 -90 0 -90 -112 0 -111 0 6 -97 c4 -54 8 -134 9 -178 1 -76 2
-77 7 -25 6 54 6 53 28 -75 13 -71 25 -141 28 -155 3 -14 6 -36 8 -50 1 -16
13 -30 38 -43 l37 -19 7 -104 c4 -56 4 -108 0 -113 -8 -14 -109 -14 -157 -1
-48 14 -100 73 -128 146 -30 80 -39 195 -40 476 l0 237 -70 7 -70 7 0 57 c0
32 -3 72 -6 89 l-6 31 74 0 75 0 5 84 c2 49 10 91 17 100 12 14 8 16 -35 16
-31 0 -61 -7 -81 -20z m-3 -95 c31 -12 32 -14 10 -14 -14 0 -34 6 -44 14 -24
18 -13 18 34 0z m-35 -29 c12 3 26 1 29 -5 5 -7 -5 -11 -28 -11 -28 0 -36 4
-35 18 0 10 3 12 6 5 3 -8 14 -11 28 -7z"/>
<path d="M1840 6760 c-6 -11 -8 -20 -6 -20 3 0 10 9 16 20 6 11 8 20 6 20 -3
0 -10 -9 -16 -20z"/>
<path d="M4870 6699 c-53 -11 -107 -33 -130 -54 -11 -10 -36 -50 -56 -89 -54
-109 -92 -163 -119 -170 -13 -3 -27 -15 -30 -26 -3 -11 -10 -20 -14 -20 -12 0
-22 74 -11 78 31 11 51 43 64 107 8 39 18 81 22 94 6 18 4 22 -6 16 -9 -6 -11
-4 -6 4 5 7 10 10 13 7 3 -3 14 6 25 19 23 29 62 33 77 8 6 -10 11 -13 11 -7
1 45 -84 43 -184 -4 -36 -17 -66 -27 -66 -23 0 4 10 13 23 19 22 11 22 11 1
11 -29 1 -37 -11 -68 -108 -39 -120 -61 -158 -131 -227 -98 -96 -227 -132
-427 -121 -57 4 -100 2 -103 -3 -3 -5 -3 -25 1 -44 5 -31 8 -34 28 -26 12 4
49 11 82 15 32 4 117 22 187 42 70 19 130 33 133 30 3 -3 6 -160 7 -349 2
-260 5 -349 15 -366 12 -21 51 -36 97 -36 81 1 416 44 429 56 6 4 -27 8 -73 8
l-83 0 4 358 c4 403 4 402 89 553 67 120 131 193 188 218 57 24 81 26 100 9
11 -11 13 -10 9 2 -6 19 -53 28 -98 19z"/>
<path d="M5305 6439 c-22 -12 -51 -31 -63 -43 -42 -38 -100 -172 -69 -160 8 3
19 -10 29 -33 36 -84 41 -116 35 -213 -6 -101 -13 -133 -28 -124 -18 11 -8
-13 19 -45 26 -31 29 -33 75 -26 48 7 93 40 124 90 13 20 13 20 10 0 -2 -20 4
-22 36 -10 10 4 17 3 17 -5 0 -6 4 -9 9 -6 5 4 7 -3 4 -14 -3 -11 -10 -20 -17
-20 -6 0 -5 -4 3 -9 11 -7 7 -14 -19 -30 -44 -26 -107 -36 -154 -23 -48 14
-36 -4 13 -19 53 -16 120 -4 172 31 157 104 186 452 51 602 -70 78 -166 100
-247 57z"/>
<path d="M7064 5776 c11 -9 34 -15 50 -15 31 1 31 1 -4 8 -20 4 -42 11 -50 15
-8 4 -6 0 4 -8z"/>
<path d="M6734 5238 c-43 -86 -320 -581 -410 -734 -89 -151 -185 -266 -264
-315 -25 -16 -40 -29 -34 -29 21 0 129 77 169 121 54 58 89 111 167 249 36 63
95 167 131 230 36 63 79 142 97 175 18 33 47 87 65 120 67 123 117 226 112
232 -3 3 -18 -19 -33 -49z"/>
<path d="M3611 4955 c12 -22 29 -47 37 -55 20 -20 -13 37 -40 71 -17 20 -16
18 3 -16z"/>
<path d="M3691 4835 c18 -25 40 -51 48 -58 8 -7 -5 14 -28 46 -51 68 -67 77
-20 12z"/>
<path d="M7330 4570 c-139 -40 -171 -59 -196 -119 -18 -44 -11 -81 22 -112 24
-22 32 -24 127 -21 123 3 201 20 99 21 -56 1 -67 4 -93 30 -23 24 -29 38 -29
73 0 56 30 89 107 117 32 12 67 26 78 31 l20 9 -20 -1 c-11 0 -63 -12 -115
-28z"/>
<path d="M4020 4420 c0 -5 5 -10 11 -10 5 0 7 5 4 10 -3 6 -8 10 -11 10 -2 0
-4 -4 -4 -10z"/>
<path d="M3800 4297 c0 -7 72 -48 76 -44 2 2 -14 14 -36 26 -22 12 -40 20 -40
18z"/>
<path d="M5241 4291 c-8 -5 -11 -16 -8 -25 6 -14 10 -14 27 -4 20 13 22 29 4
35 -5 1 -15 -1 -23 -6z"/>
<path d="M3897 4239 c7 -7 15 -10 18 -7 3 3 -2 9 -12 12 -14 6 -15 5 -6 -5z"/>
<path d="M6050 4221 c-54 -39 -211 -75 -420 -96 l-145 -14 129 5 c71 2 147 9
170 13 23 5 68 15 101 22 70 14 205 67 205 80 0 13 -12 10 -40 -10z"/>
<path d="M3977 4199 c7 -7 15 -10 18 -7 3 3 -2 9 -12 12 -14 6 -15 5 -6 -5z"/>
<path d="M4758 4123 c23 -2 61 -2 85 0 23 2 4 4 -43 4 -47 0 -66 -2 -42 -4z"/>
<path d="M5378 4103 c18 -2 45 -2 60 0 15 2 0 4 -33 4 -33 0 -45 -2 -27 -4z"/>
<path d="M5218 4093 c6 -2 18 -2 25 0 6 3 1 5 -13 5 -14 0 -19 -2 -12 -5z"/>
<path d="M5088 4063 c6 -2 18 -2 25 0 6 3 1 5 -13 5 -14 0 -19 -2 -12 -5z"/>
<path d="M5298 4063 c12 -2 32 -2 45 0 12 2 2 4 -23 4 -25 0 -35 -2 -22 -4z"/>
<path d="M12515 3620 c-102 -8 -213 -12 -683 -25 -95 -3 -182 -9 -192 -15 -10
-5 -52 -10 -92 -10 -87 0 -260 -27 -269 -41 -3 -6 -15 -9 -25 -8 -11 2 -25 0
-31 -4 -17 -11 -16 -66 2 -100 8 -16 17 -51 21 -78 5 -37 10 -49 20 -45 9 3
14 -2 14 -12 0 -10 14 -31 30 -47 17 -16 30 -32 30 -37 0 -15 45 -78 56 -78 6
0 23 -18 38 -40 14 -22 32 -40 40 -40 8 0 16 -9 19 -20 3 -11 16 -24 30 -29
13 -5 27 -21 31 -34 4 -19 14 -26 48 -32 37 -6 40 -8 22 -15 -12 -5 -25 -14
-30 -21 -4 -7 -3 -10 3 -6 6 4 23 -5 38 -19 15 -14 33 -23 41 -20 8 3 14 -4
16 -17 2 -12 10 -22 18 -22 21 0 41 -30 34 -49 -4 -10 0 -18 10 -22 9 -3 13
-10 10 -15 -3 -5 6 -9 20 -9 18 0 26 -5 26 -18 0 -10 5 -23 12 -30 7 -7 8 -12
2 -12 -5 0 -2 -4 6 -10 9 -5 14 -23 13 -48 -2 -36 0 -39 23 -34 21 4 24 1 24
-26 0 -21 6 -31 19 -35 12 -3 21 -17 25 -41 4 -20 13 -36 20 -36 18 0 26 -22
19 -49 -7 -27 16 -58 28 -39 6 9 11 10 19 2 12 -12 -6 -38 -32 -46 -6 -2 -8
-10 -4 -16 5 -9 11 -8 22 3 23 23 31 11 34 -52 1 -32 3 -73 3 -92 2 -41 27
-56 27 -16 0 17 4 25 13 22 6 -2 11 -10 9 -17 -1 -7 1 -17 6 -24 5 -6 8 -31 7
-56 -1 -25 6 -61 15 -81 13 -29 14 -37 3 -47 -7 -7 -13 -27 -13 -44 0 -36 16
-28 23 12 4 24 5 25 12 3 4 -12 13 -19 20 -17 7 3 15 -2 19 -12 4 -11 2 -15
-8 -11 -8 3 -18 0 -23 -6 -18 -26 -1 -207 20 -207 5 0 16 8 23 17 7 10 16 14
21 10 4 -5 0 -13 -10 -18 -9 -6 -17 -19 -17 -29 0 -10 -4 -22 -10 -25 -5 -3
-10 3 -10 14 0 12 -4 21 -10 21 -13 0 -13 -27 1 -35 6 -4 8 -14 4 -22 -3 -9 2
-24 11 -34 16 -18 16 -19 0 -19 -12 0 -15 -6 -10 -25 3 -14 3 -32 0 -41 -6
-15 -8 -15 -25 0 -13 11 -21 14 -26 7 -3 -6 -1 -11 4 -11 6 0 11 -12 11 -27 1
-25 2 -26 14 -11 7 10 16 15 19 11 13 -12 7 -44 -10 -61 -16 -16 -15 -17 3
-20 25 -5 43 -22 22 -22 -17 0 -31 -57 -16 -62 17 -6 -4 -39 -23 -36 -10 2
-18 -1 -18 -7 0 -5 11 -9 24 -7 19 3 25 -1 25 -16 0 -15 -5 -18 -25 -14 -22 4
-25 1 -25 -22 0 -15 6 -26 14 -26 14 0 26 -29 26 -62 0 -11 -8 -18 -20 -18
-17 0 -19 -5 -14 -24 4 -17 0 -27 -13 -35 -10 -6 -13 -11 -8 -11 9 0 11 -48 6
-142 0 -15 -7 -33 -15 -41 -11 -10 -12 -17 -4 -25 19 -19 1 -43 -27 -36 -21 5
-24 3 -19 -11 4 -10 14 -15 25 -12 17 5 19 -1 19 -44 0 -46 -2 -49 -19 -40
-16 9 -19 6 -24 -25 -6 -36 9 -84 25 -84 5 0 6 -5 2 -11 -4 -8 -12 -2 -21 15
-7 14 -21 26 -29 26 -8 0 -12 -5 -9 -10 4 -6 10 -8 13 -6 4 2 6 -27 4 -66 -4
-58 -2 -69 9 -63 8 5 6 -1 -4 -13 -19 -20 -18 -21 5 -16 18 3 17 1 -7 -10 -16
-9 -24 -15 -18 -16 10 0 10 -6 1 -25 -6 -14 -14 -25 -18 -25 -11 0 -18 -60 -8
-66 17 -11 7 -24 -17 -24 -14 0 -25 -4 -25 -9 0 -5 -9 -11 -20 -14 -11 -3 -20
-12 -20 -20 0 -8 9 -17 20 -20 24 -6 29 -57 5 -57 -8 0 -15 -9 -15 -20 0 -11
-4 -20 -10 -20 -5 0 -7 -7 -4 -14 4 -12 -6 -16 -48 -19 -29 -2 171 -4 445 -5
l497 -2 0 1804 c0 993 -3 1807 -7 1809 -18 10 -176 14 -278 7z m-1265 -140 c0
-5 -4 -10 -10 -10 -5 0 -10 5 -10 10 0 6 5 10 10 10 6 0 10 -4 10 -10z m930
-1580 c0 -5 -4 -10 -10 -10 -5 0 -10 5 -10 10 0 6 5 10 10 10 6 0 10 -4 10
-10z m10 -109 c0 -6 -5 -13 -12 -17 -8 -5 -7 -9 5 -13 11 -4 14 -10 7 -21 -11
-19 -18 -11 -26 28 -5 25 -3 32 10 32 9 0 16 -4 16 -9z m0 -101 c0 -11 -4 -20
-9 -20 -14 0 -23 18 -16 30 10 17 25 11 25 -10z m20 -136 c0 -8 -4 -12 -10 -9
-5 3 -10 10 -10 16 0 5 5 9 10 9 6 0 10 -7 10 -16z m38 -15 c-2 -6 -8 -10 -13
-10 -5 0 -11 4 -13 10 -2 6 4 11 13 11 9 0 15 -5 13 -11z m-48 -61 c0 -18 -2
-20 -9 -8 -6 8 -7 18 -5 22 9 14 14 9 14 -14z m50 2 c0 -5 -4 -10 -10 -10 -5
0 -10 5 -10 10 0 6 5 10 10 10 6 0 10 -4 10 -10z m-40 -49 c0 -6 -4 -13 -10
-16 -5 -3 -10 1 -10 9 0 9 5 16 10 16 6 0 10 -4 10 -9z m40 -27 c0 -8 -4 -12
-10 -9 -5 3 -10 10 -10 16 0 5 5 9 10 9 6 0 10 -7 10 -16z m-32 -52 c6 -18
-15 -14 -22 4 -4 10 -1 14 6 12 6 -2 14 -10 16 -16z m85 -829 c19 -49 38 -103
42 -121 6 -31 5 -33 -16 -30 -15 2 -25 12 -29 28 -5 23 -11 25 -60 25 -49 0
-55 -2 -60 -25 -4 -16 -14 -26 -28 -28 -29 -4 -28 9 4 100 44 124 53 138 84
138 26 0 31 -7 63 -87z m127 -33 c0 -113 -1 -120 -20 -120 -19 0 -20 7 -20
120 0 113 1 120 20 120 19 0 20 -7 20 -120z m-350 80 c0 -11 -4 -20 -9 -20 -5
0 -7 9 -4 20 3 11 7 20 9 20 2 0 4 -9 4 -20z m13 -195 c-3 -9 -8 -14 -10 -11
-3 3 -2 9 2 15 9 16 15 13 8 -4z m-46 -192 c-3 -10 -5 -2 -5 17 0 19 2 27 5
18 2 -10 2 -26 0 -35z m-12 -33 c-3 -5 -13 -10 -21 -10 -8 0 -14 5 -14 10 0 6
9 10 21 10 11 0 17 -4 14 -10z"/>
<path d="M12226 536 c-3 -13 -9 -31 -12 -40 -5 -13 1 -16 26 -16 25 0 31 3 26
16 -3 9 -9 27 -12 40 -8 31 -20 31 -28 0z"/>
<path d="M10320 3309 c0 -5 5 -7 10 -4 6 3 10 8 10 11 0 2 -4 4 -10 4 -5 0
-10 -5 -10 -11z"/>
<path d="M3495 3100 c3 -5 8 -10 11 -10 2 0 4 5 4 10 0 6 -5 10 -11 10 -5 0
-7 -4 -4 -10z"/>
<path d="M10410 3090 c0 -5 5 -10 10 -10 6 0 10 5 10 10 0 6 -4 10 -10 10 -5
0 -10 -4 -10 -10z"/>
<path d="M988 2713 c6 -2 18 -2 25 0 6 3 1 5 -13 5 -14 0 -19 -2 -12 -5z"/>
<path d="M12000 2214 c0 -8 5 -12 10 -9 6 4 8 11 5 16 -9 14 -15 11 -15 -7z"/>
<path d="M12050 2050 c0 -13 5 -20 13 -17 6 2 12 10 12 17 0 7 -6 15 -12 18
-8 2 -13 -5 -13 -18z"/>
<path d="M12060 1831 c0 -6 4 -13 10 -16 6 -3 7 1 4 9 -7 18 -14 21 -14 7z"/>
<path d="M12105 1789 c-9 -14 -2 -20 14 -10 8 6 9 11 3 15 -6 3 -14 1 -17 -5z"/>
<path d="M12120 1526 c0 -9 5 -16 10 -16 6 0 10 4 10 9 0 6 -4 13 -10 16 -5 3
-10 -1 -10 -9z"/>
<path d="M12130 1479 c0 -5 5 -7 10 -4 6 3 10 8 10 11 0 2 -4 4 -10 4 -5 0
-10 -5 -10 -11z"/>
<path d="M12120 1309 c0 -11 4 -18 10 -14 5 3 7 12 3 20 -7 21 -13 19 -13 -6z"/>
<path d="M12082 1165 c0 -16 2 -22 5 -12 2 9 2 23 0 30 -3 6 -5 -1 -5 -18z"/>
<path d="M12097 1103 c-12 -12 -7 -31 10 -37 20 -8 36 14 21 31 -12 14 -21 16
-31 6z"/>
<path d="M12071 874 c0 -11 3 -14 6 -6 3 7 2 16 -1 19 -3 4 -6 -2 -5 -13z"/>
<path d="M7640 566 c0 -9 5 -16 10 -16 6 0 10 4 10 9 0 6 -4 13 -10 16 -5 3
-10 -1 -10 -9z"/>
<path d="M11950 436 c0 -2 7 -7 16 -10 8 -3 12 -2 9 4 -6 10 -25 14 -25 6z"/>
<path d="M11965 348 c-4 -9 -16 -14 -30 -12 -14 1 -27 -1 -29 -5 -3 -4 8 -7
25 -6 30 1 58 20 46 31 -4 4 -9 0 -12 -8z"/>
<path d="M11947 247 c-11 -29 -9 -43 4 -30 6 6 9 19 7 29 -3 18 -4 18 -11 1z"/>
</g>
</svg>
